<mxfile host="app.diagrams.net" modified="2023-04-20T06:46:12.908Z" agent="Mozilla/5.0 (Windows NT 10.0; Win64; x64) AppleWebKit/537.36 (KHTML, like Gecko) Chrome/112.0.0.0 Safari/537.36 Edg/112.0.1722.48" version="21.1.7" etag="D8xb3gggqOPeiPXCQrx8" type="github">
  <diagram name="第 1 页" id="NyWeCgKh3Pg_s2tJgKNX">
    <mxGraphModel>
      <root>
        <mxCell id="0" />
        <mxCell id="1" parent="0" />
      </root>
    </mxGraphModel>
  </diagram>
</mxfile>
